<svg width="200" height="50" xmlns="http://www.w3.org/2000/svg">
  <defs>
    <linearGradient id="logo-gradient" x1="0%" y1="0%" x2="100%" y2="0%">
      <stop offset="0%" stop-color="#4a6bff" />
      <stop offset="100%" stop-color="#32d4a4" />
    </linearGradient>
  </defs>
  <g fill="url(#logo-gradient)">
    <path d="M20,10 L30,10 L30,40 L20,40 Z" />
    <path d="M35,10 L45,10 L45,40 L35,40 Z" />
    <path d="M20,20 L45,20 L45,30 L20,30 Z" />
    <path d="M50,10 C50,10 70,10 70,25 C70,40 50,40 50,40 L50,30 C50,30 60,30 60,25 C60,20 50,20 50,20 Z" />
    <path d="M75,10 L85,10 L85,40 L75,40 Z" />
    <path d="M90,10 L100,10 L100,40 L90,40 Z" />
    <path d="M90,10 L110,10 L110,20 L90,20 Z" />
    <path d="M90,25 L105,25 L105,35 L90,35 Z" />
    <path d="M115,10 L125,10 L125,40 L115,40 Z" />
    <path d="M130,10 L140,40 L135,40 L125,10 Z" />
    <path d="M140,10 L150,40 L145,40 L135,10 Z" />
    <path d="M155,10 L165,10 L165,40 L155,40 Z" />
    <path d="M155,10 L175,10 L175,20 L155,20 Z" />
    <path d="M155,25 L170,25 L170,35 L155,35 Z" />
  </g>
</svg>